<?xml version="1.0" encoding="iso-8859-1"?>
<!-- Generator: Adobe Illustrator 16.0.0, SVG Export Plug-In . SVG Version: 6.00 Build 0)  -->
<!DOCTYPE svg PUBLIC "-//W3C//DTD SVG 1.1//EN" "http://www.w3.org/Graphics/SVG/1.1/DTD/svg11.dtd">
<svg version="1.1" id="Capa_1" xmlns="http://www.w3.org/2000/svg" xmlns:xlink="http://www.w3.org/1999/xlink" x="0px" y="0px"
	 width="98.073px" height="98.073px" viewBox="0 0 98.073 98.073" style="enable-background:new 0 0 98.073 98.073;"
	 xml:space="preserve">
<g>
	<path d="M97.438,42.738C94.788,29.89,84.387,23.112,71.938,24.569c-5.037,0.59-9.378,2.82-13.318,5.91
		c-3.417,2.681-6.184,5.994-8.959,9.29c-0.111,0.133-0.204,0.232-0.293,0.311c-0.011,0.01-0.023,0.025-0.034,0.033
		c-0.067,0.058-0.128,0.08-0.188,0.104c-0.037,0.012-0.075,0.03-0.109,0.029c-0.036,0.001-0.073-0.018-0.11-0.029
		c-0.06-0.023-0.12-0.046-0.188-0.104c-0.011-0.008-0.022-0.023-0.034-0.031c-0.089-0.08-0.182-0.18-0.293-0.313
		c-2.776-3.296-5.543-6.609-8.96-9.29c-3.94-3.09-8.282-5.32-13.318-5.91c-12.447-1.457-22.85,5.32-25.499,18.169
		c-1.113,5.404-0.772,10.746,1.101,15.957c3.461,9.629,11.477,15.123,21.72,15.002c6.239-0.072,11.565-2.49,16.426-6.178
		c3.175-2.408,5.894-5.297,8.51-8.279c0.106-0.121,0.184-0.221,0.251-0.312c0.427-0.358,0.643-0.14,1.039,0.312
		c2.616,2.982,5.335,5.871,8.51,8.279c4.86,3.688,10.187,6.104,16.426,6.178c10.243,0.121,18.26-5.373,21.723-15.002
		C98.21,53.484,98.553,48.142,97.438,42.738z M40.58,49.799c-1.687,1.888-3.427,3.723-5.4,5.313
		c-3.279,2.639-6.828,4.67-11.153,5.069c-4.869,0.452-8.814-1.827-10.556-6.239c-0.604-1.527-0.856-3.121-0.865-4.988
		c-0.02-0.465,0.06-1.151,0.145-1.838c0.769-6.124,5.926-10.085,12.036-9.277c3.206,0.425,5.853,2.011,8.345,3.921
		c2.777,2.13,5.107,4.732,7.507,7.261C40.959,49.356,40.815,49.535,40.58,49.799z M84.602,53.941
		c-1.741,4.413-5.688,6.692-10.558,6.24c-4.323-0.4-7.873-2.432-11.15-5.07c-1.976-1.59-3.715-3.425-5.401-5.312
		c-0.236-0.266-0.379-0.442-0.058-0.779c2.398-2.528,4.729-5.131,7.507-7.261c2.491-1.91,5.139-3.496,8.345-3.921
		c6.109-0.808,11.269,3.153,12.036,9.277c0.085,0.687,0.163,1.374,0.146,1.838C85.458,50.82,85.206,52.414,84.602,53.941z"/>
</g>
<g>
</g>
<g>
</g>
<g>
</g>
<g>
</g>
<g>
</g>
<g>
</g>
<g>
</g>
<g>
</g>
<g>
</g>
<g>
</g>
<g>
</g>
<g>
</g>
<g>
</g>
<g>
</g>
<g>
</g>
</svg>
